<svg width="250" height="40" viewBox="0 0 250 40" fill="none" xmlns="http://www.w3.org/2000/svg">
<g clip-path="url(#clip0_0_256)">
<path d="M14.4677 9.51523H3.96096L14.4677 0V9.51523Z" fill="#FFD710"/>
<path d="M30.5609 11.358V39.3701H27.5416V18.6471L15.2805 30.9089L3.01933 18.6471V39.3701H0V11.3587L15.2805 26.6391L30.5609 11.358Z" fill="#FFD710"/>
<path d="M24.898 29.7525V25.4815L15.2804 35.0991L5.66291 25.4815V29.7525L15.2804 39.3701L24.898 29.7525Z" fill="#FFD710"/>
<path d="M14.4677 11.1408H3.84473L14.4677 22.1913V11.1408Z" fill="#FFD710"/>
<path d="M26.6006 9.51523H16.0939V0L26.6006 9.51523Z" fill="#FFD710"/>
<path d="M16.0939 22.1913L26.7168 11.1408H16.0939V22.1913Z" fill="#FFD710"/>
<path d="M236.607 18.9331H241.517V33.7949H244.862V18.9331H249.771V15.748H236.607V18.9331Z" fill="#FFD710"/>
<path d="M53.1134 25.3313L43.1873 15.7498L43.1592 33.7967H46.5043V23.1008L53.1134 29.9472L59.7226 23.1008V33.7967H63.0395V15.7498L53.1134 25.3313Z" fill="#FFD710"/>
<path d="M70.9546 15.7498H67.6378V33.7967H70.9546V15.7498Z" fill="#FFD710"/>
<path d="M78.8646 22.809V33.7967H75.5195V15.7762L89.1334 27.6129V15.7498H92.452V34.6457L78.8646 22.809Z" fill="#FFD710"/>
<path d="M110.028 15.7498H97.0503V33.7985H110.028V30.9315H100.367V26.0749H108.727V23.1816H100.367V18.6167H110.028V15.7498Z" fill="#FFD710"/>
<path fill-rule="evenodd" clip-rule="evenodd" d="M113.749 15.7498H121.683C125.904 15.7498 128.185 18.854 128.185 22.0918C128.185 24.6933 126.832 26.9748 124.417 27.9047L128.532 33.7703H124.656L120.887 28.4092L117.066 28.4355V33.7967H113.749V15.7498ZM117.066 25.5159H121.497C123.329 25.5159 124.895 24.057 124.895 22.0918C124.895 20.0739 123.329 18.6677 121.497 18.6677H117.066V25.5159Z" fill="#FFD710"/>
<path fill-rule="evenodd" clip-rule="evenodd" d="M134.851 30.638H144.141L145.865 33.7967H149.528L139.497 15.7498L129.463 33.7967L133.126 33.8231L134.851 30.638ZM139.497 22.1727L142.443 27.6656H136.524L139.497 22.1727Z" fill="#FFD710"/>
<path d="M154.497 15.7498V30.6116H163.785V33.7967H151.179V15.7498H154.497Z" fill="#FFD710"/>
<path d="M174.699 15.7498H171.038L180.936 33.7967L190.862 15.7498H187.2L180.936 27.3475L174.699 15.7498Z" fill="#FFD710"/>
<path fill-rule="evenodd" clip-rule="evenodd" d="M200.526 30.638H191.236L189.512 33.8231L185.849 33.7967L195.882 15.7498L205.913 33.7967H202.25L200.526 30.638ZM198.828 27.6656L195.882 22.1727L192.91 27.6656H198.828Z" fill="#FFD710"/>
<path d="M206.397 15.7762V26.8167C206.397 30.9562 209.209 34.1149 213.563 34.1149C217.889 34.1149 220.703 30.9562 220.703 26.8167V15.7762H217.439V26.8167C217.439 29.1263 216.031 30.798 213.537 30.798C211.067 30.798 209.661 29.1246 209.661 26.8167V15.7762H206.397Z" fill="#FFD710"/>
<path d="M228.694 15.7498V30.6116H237.982V33.7967H225.375V15.7498H228.694Z" fill="#FFD710"/>
</g>
<defs>
<clipPath id="clip0_0_256">
<rect width="250" height="39.3701" fill="white"/>
</clipPath>
</defs>
</svg>
