<svg width="24" height="24" viewBox="0 0 24 24" fill="none" xmlns="http://www.w3.org/2000/svg">
<path fill-rule="evenodd" clip-rule="evenodd" d="M2.00016 6.40257C1.99996 6.41177 1.99995 6.42098 2.00011 6.43017V17.581C2.00011 18.9895 3.14968 20.1391 4.55824 20.1391H19.4419C20.8504 20.1391 22 18.9895 22 17.581V6.42059C22 6.41831 22 6.41604 22 6.41376C21.9976 5.00724 20.8489 3.86011 19.4419 3.86011H4.55824C3.1549 3.86011 2.00865 5.00116 2.00016 6.40257ZM3.44361 6.08868C3.58711 5.60911 4.03457 5.25545 4.55824 5.25545H19.4419C19.9655 5.25545 20.413 5.60908 20.5565 6.08861L12 12.0782L3.44361 6.08868ZM20.6047 7.75813V17.581C20.6047 18.2189 20.0798 18.7437 19.4419 18.7437H4.55824C3.9203 18.7437 3.39545 18.2189 3.39545 17.581V7.7582L11.5999 13.5013C11.8401 13.6695 12.1599 13.6695 12.4001 13.5013L20.6047 7.75813Z" fill="#FFD710"/>
</svg>
