<svg width="24" height="24" viewBox="0 0 24 24" fill="none" xmlns="http://www.w3.org/2000/svg">
<path d="M11.6435 21.8927C11.6435 21.8927 11.6439 21.8929 11.9979 21.3618L12.352 21.8929C12.1376 22.0359 11.8579 22.0356 11.6435 21.8927Z" fill="#FFD710"/>
<path fill-rule="evenodd" clip-rule="evenodd" d="M11.9979 7.10641C10.2353 7.10641 8.80643 8.5353 8.80643 10.2979C8.80643 12.0605 10.2353 13.4894 11.9979 13.4894C13.7606 13.4894 15.1894 12.0605 15.1894 10.2979C15.1894 8.5353 13.7606 7.10641 11.9979 7.10641ZM10.083 10.2979C10.083 9.24035 10.9404 8.38302 11.9979 8.38302C13.0555 8.38302 13.9128 9.24035 13.9128 10.2979C13.9128 11.3555 13.0555 12.2128 11.9979 12.2128C10.9404 12.2128 10.083 11.3555 10.083 10.2979Z" fill="#FFD710"/>
<path fill-rule="evenodd" clip-rule="evenodd" d="M11.6435 21.8927L11.9979 21.3618C12.352 21.8929 12.3529 21.8923 12.3529 21.8923L12.3545 21.8912L12.3598 21.8877L12.3785 21.875C12.3946 21.8641 12.4177 21.8483 12.4474 21.8278C12.5067 21.7866 12.5925 21.7265 12.7008 21.6482C12.9173 21.4918 13.2246 21.263 13.5924 20.9702C14.3269 20.3853 15.3079 19.5407 16.2911 18.5029C18.2314 16.4548 20.2959 13.5332 20.2959 10.2979C20.2959 8.09718 19.4216 5.98657 17.8655 4.43041C16.3093 2.87424 14.1987 2 11.9979 2C9.79719 2 7.68658 2.87424 6.13042 4.43041C4.57426 5.98657 3.70001 8.09718 3.70001 10.2979C3.70001 13.5332 5.76445 16.4548 7.70475 18.5029C8.68795 19.5407 9.66898 20.3853 10.4035 20.9702C10.7713 21.263 11.0785 21.4918 11.2951 21.6482C11.4034 21.7265 11.4891 21.7866 11.5485 21.8278C11.5782 21.8483 11.6013 21.8641 11.6173 21.875L11.6361 21.8877L11.6414 21.8912L11.6435 21.8927ZM7.03311 5.3331C8.34987 4.01635 10.1358 3.2766 11.9979 3.2766C13.8601 3.2766 15.646 4.01635 16.9628 5.3331C18.2795 6.64985 19.0193 8.43575 19.0193 10.2979C19.0193 13.0201 17.2539 15.6305 15.3644 17.6249C14.4327 18.6084 13.4988 19.4128 12.7971 19.9715C12.4718 20.2306 12.1975 20.436 11.9979 20.581C11.7984 20.436 11.5241 20.2306 11.1987 19.9715C10.4971 19.4128 9.5632 18.6084 8.6315 17.6249C6.74199 15.6305 4.97662 13.0201 4.97662 10.2979C4.97662 8.43575 5.71636 6.64985 7.03311 5.3331Z" fill="#FFD710"/>
</svg>
