<svg width="24" height="24" viewBox="0 0 24 24" fill="none" xmlns="http://www.w3.org/2000/svg">
<path fill-rule="evenodd" clip-rule="evenodd" d="M2.86363 2.59686C3.37459 2.19545 4.03671 2 4.6966 2H7.15586C8.33062 2 9.35439 2.8001 9.63826 3.94005L10.4435 7.17363C10.66 8.04305 10.4058 8.96237 9.77355 9.59716L9.00396 10.3698C9.54817 11.2644 10.4047 12.2063 11.3293 13.0646C12.1733 13.8482 13.0393 14.5305 13.6992 15.0053L14.421 14.2807C15.057 13.6422 15.9821 13.3854 16.8562 13.6048L20.0645 14.4101C21.2023 14.6956 22 15.7183 22 16.8913V18.8491C22 20.4452 20.8549 22.0451 19.0446 21.9965C16.4325 21.9262 12.7474 20.9327 8.18345 17.4081L8.14757 17.3804L8.11558 17.3483C3.8507 13.0667 2.04443 7.527 2.00024 4.39706C1.98944 3.63176 2.33839 3.00949 2.86363 2.59686ZM3.72565 3.69414C3.51245 3.86163 3.39135 4.08412 3.39549 4.37736C3.4343 7.12586 5.07778 12.3026 9.07236 16.3315C13.4237 19.6821 16.8174 20.5407 19.0821 20.6016C19.901 20.6236 20.6046 19.8832 20.6046 18.8491V16.8913C20.6046 16.3581 20.242 15.8933 19.7249 15.7635L16.5165 14.9583C16.1192 14.8585 15.6987 14.9752 15.4096 15.2655L14.2752 16.4044C14.0398 16.6407 13.67 16.6774 13.3928 16.4918C12.6595 16.001 11.5019 15.1289 10.3799 14.0872C9.26881 13.0557 8.13641 11.8069 7.51526 10.5598C7.38177 10.2918 7.43417 9.96848 7.64547 9.75635L8.78492 8.61241C9.07233 8.32387 9.18784 7.906 9.08944 7.51081L8.28422 4.27723C8.15519 3.75907 7.68984 3.39539 7.15586 3.39539H4.6966C4.29785 3.39539 3.95314 3.51542 3.72565 3.69414Z" fill="#FFD710"/>
</svg>
